<svg width="137" height="137" viewBox="0 0 137 137" fill="none" xmlns="http://www.w3.org/2000/svg">
<g clip-path="url(#clip0_186_640)">
<path d="M66.8892 60.4573C66.7731 60.487 66.6489 60.4851 66.5286 60.4541L32.9829 51.1883C32.8016 51.1392 32.6477 51.0212 32.5543 50.854C32.4609 50.6868 32.4347 50.4968 32.4891 50.3142C32.5564 50.0721 32.7494 49.8821 32.9974 49.8186C33.1187 49.7875 33.2429 49.7894 33.3632 49.8204L66.9036 59.0875C67.0849 59.1367 67.2388 59.2546 67.3322 59.4218C67.4256 59.589 67.4466 59.7804 67.3974 59.9617C67.3301 60.2038 67.1384 60.399 66.8905 60.4626L66.8892 60.4573Z" fill="#EB6309"/>
<path d="M66.8405 60.2675C66.7561 60.2891 66.6663 60.2896 66.575 60.2624L33.0346 50.9953C32.762 50.9189 32.5992 50.6346 32.6756 50.3621C32.7519 50.0895 33.0363 49.9267 33.3088 50.0031L66.8492 59.2702C67.1217 59.3465 67.2845 59.6309 67.2082 59.9034C67.1604 60.0899 67.0146 60.2229 66.8405 60.2675Z" fill="#EB6309"/>
<path d="M66.8892 60.4574C66.6413 60.5209 66.3806 60.4471 66.2052 60.2672C65.9355 59.9821 65.9395 59.537 66.2179 59.2633L91.1603 35.0134C91.2509 34.9283 91.3589 34.867 91.4802 34.8359C91.7281 34.7724 91.9888 34.8461 92.1642 35.0261C92.2957 35.1666 92.3694 35.3445 92.3665 35.5308C92.365 35.7223 92.2868 35.8997 92.1515 36.0299L67.2091 60.2798C67.1185 60.3649 67.0105 60.4263 66.8892 60.4574Z" fill="#EB6309"/>
<path d="M66.8406 60.2677C66.6665 60.3123 66.4747 60.2659 66.3431 60.1253C66.1451 59.923 66.1511 59.5954 66.3534 59.3975L91.2958 35.1476C91.498 34.9496 91.8243 34.9503 92.0236 35.1579C92.223 35.3654 92.2156 35.6877 92.0133 35.8857L67.0709 60.1356C67.004 60.2033 66.925 60.2461 66.8406 60.2677Z" fill="#EB6309"/>
<path d="M53.7895 56.854C53.6629 56.8864 53.5387 56.8845 53.417 56.8482C53.2358 56.7991 53.0858 56.6745 52.9937 56.5125C52.9003 56.3453 52.8793 56.1539 52.9338 55.9713C54.3305 51.0881 58.2601 47.2706 63.1768 46.011C68.0934 44.7514 73.3521 46.2093 76.9234 49.8142C77.0589 49.9481 77.1326 50.126 77.1311 50.3175C77.1296 50.509 77.0566 50.6851 76.9213 50.8153C76.8321 50.9057 76.7188 50.9684 76.5975 50.9995C76.3548 51.0617 76.0956 50.9932 75.9149 50.8146C72.693 47.5643 67.9489 46.25 63.5282 47.3826C59.1074 48.5151 55.56 51.9593 54.2991 56.3636C54.2266 56.6071 54.0322 56.7918 53.7895 56.854Z" fill="#EB6309"/>
<path d="M53.7423 56.6692C53.6579 56.6908 53.5628 56.6927 53.4715 56.6655C53.1989 56.5891 53.0414 56.3034 53.1164 56.0256C54.4964 51.2085 58.3722 47.4441 63.2202 46.2021C68.0683 44.96 73.2609 46.4012 76.7804 49.9575C76.9784 50.1597 76.9776 50.486 76.7767 50.6892C76.5745 50.8872 76.2482 50.8865 76.045 50.6856C72.7779 47.3907 67.9611 46.0556 63.4718 47.2057C58.9824 48.3559 55.385 51.8466 54.1074 56.317C54.053 56.4996 53.9124 56.6312 53.7383 56.6758L53.7423 56.6692Z" fill="#EB6309"/>
<path d="M62.2418 42.4051C61.862 42.5024 61.4763 42.2696 61.3803 41.895L58.2948 29.8513C58.1975 29.4715 58.4304 29.0858 58.8049 28.9898C59.1795 28.8939 59.5705 29.1254 59.6664 29.4999L62.7519 41.5436C62.8492 41.9234 62.6164 42.3092 62.2418 42.4051Z" fill="#EB6309"/>
<path d="M62.1932 42.2154C61.9188 42.2856 61.6352 42.1222 61.5636 41.8426L58.4768 29.7936C58.4065 29.5193 58.57 29.2357 58.8495 29.1641C59.1291 29.0925 59.4075 29.2573 59.4791 29.5369L62.5659 41.5858C62.6362 41.8601 62.4728 42.1437 62.1932 42.2154Z" fill="#EB6309"/>
<path d="M56.3061 45.1063C56.0159 45.1806 55.7101 45.0622 55.5462 44.8175L48.3793 34.331C48.2714 34.1731 48.2346 33.9858 48.2652 33.7981C48.3011 33.609 48.4072 33.4525 48.5651 33.3446C48.6322 33.2993 48.7072 33.2632 48.7916 33.2416C49.0818 33.1672 49.3876 33.2857 49.5515 33.5304L56.7184 44.0168C56.8263 44.1747 56.8631 44.3621 56.8325 44.5498C56.7966 44.7389 56.6919 44.9006 56.534 45.0085C56.4669 45.0538 56.3866 45.0913 56.3074 45.1115L56.3061 45.1063Z" fill="#EB6309"/>
<path d="M56.2574 44.9164C56.0517 44.9691 55.8293 44.8911 55.7041 44.7096L48.5358 34.2178C48.3746 33.9837 48.4321 33.6597 48.6729 33.5025C48.9124 33.3399 49.231 33.3988 49.3883 33.6396L56.5566 44.1314C56.7178 44.3655 56.6602 44.6895 56.4194 44.8467C56.3668 44.8827 56.3115 44.9081 56.2587 44.9216L56.2574 44.9164Z" fill="#EB6309"/>
<path d="M51.6649 49.6798C51.4591 49.7325 51.2462 49.6914 51.0752 49.5722L39.719 41.4295C39.5612 41.3181 39.4638 41.1576 39.4324 40.9689C39.4009 40.7802 39.4434 40.595 39.5561 40.4425C39.6504 40.3059 39.7938 40.2073 39.9573 40.1654C40.1631 40.1127 40.376 40.1537 40.5484 40.2782L51.9045 48.4209C52.2215 48.6489 52.2968 49.0962 52.0688 49.4132C51.9679 49.5459 51.8245 49.6445 51.6662 49.685L51.6649 49.6798Z" fill="#EB6309"/>
<path d="M51.6163 49.4898C51.4738 49.5263 51.3165 49.5048 51.1905 49.4078L39.8357 41.2703C39.6023 41.1052 39.5528 40.7806 39.7193 40.5524C39.8843 40.319 40.2076 40.2643 40.4371 40.436L51.7919 48.5735C52.0253 48.7385 52.0748 49.0632 51.9083 49.2913C51.8337 49.3948 51.7323 49.4601 51.6163 49.4898Z" fill="#EB6309"/>
<path d="M68.7506 41.9183C68.6714 41.9386 68.5896 41.9483 68.509 41.9408C68.3187 41.9221 68.1438 41.832 68.0267 41.6821C67.9096 41.5322 67.8518 41.3503 67.8705 41.16L69.1254 28.4822C69.1515 28.1888 69.3693 27.9418 69.6594 27.8675C69.7385 27.8472 69.8204 27.8375 69.9023 27.8503C70.0927 27.869 70.2622 27.9604 70.3846 28.109C70.5057 28.2522 70.5596 28.4408 70.5409 28.6311L69.2859 41.3089C69.2599 41.6023 69.0434 41.8545 68.7585 41.9275L68.7506 41.9183Z" fill="#EB6309"/>
<path d="M68.702 41.7282C68.6439 41.7431 68.5832 41.7474 68.525 41.7398C68.2422 41.7111 68.0321 41.4613 68.0608 41.1785L69.3158 28.5007C69.3445 28.2179 69.5956 28.013 69.8771 28.0365C70.1599 28.0652 70.37 28.3149 70.3413 28.5977L69.0863 41.2756C69.0638 41.495 68.9064 41.6702 68.7006 41.7229L68.702 41.7282Z" fill="#EB6309"/>
<path d="M75.0189 43.6965C74.8554 43.7384 74.6875 43.7196 74.5352 43.6518C74.3617 43.567 74.2354 43.425 74.1723 43.2445C74.1092 43.0639 74.1226 42.8749 74.2022 42.7028L80.2742 30.0444C80.3656 29.8524 80.5325 29.7141 80.7382 29.6614C80.9018 29.6195 81.0696 29.6383 81.2233 29.7114C81.3954 29.7909 81.5231 29.9381 81.5849 30.1134C81.6467 30.2887 81.6399 30.4816 81.555 30.6551L75.4829 43.3134C75.3902 43.5002 75.2233 43.6385 75.0176 43.6913L75.0189 43.6965Z" fill="#EB6309"/>
<path d="M74.9703 43.5067C74.8595 43.5351 74.734 43.5279 74.6187 43.4731C74.3631 43.3531 74.2557 43.0433 74.3757 42.7877L80.4478 30.1294C80.5731 29.8724 80.8776 29.7663 81.1332 29.8864C81.3888 30.0064 81.4962 30.3161 81.3762 30.5718L75.3041 43.2301C75.2336 43.3718 75.1127 43.4702 74.9703 43.5067Z" fill="#EB6309"/>
<path d="M83.2148 106.847C82.8666 106.936 82.5036 106.748 82.3775 106.409C82.238 106.04 82.4206 105.634 82.7896 105.494C98.4369 99.5347 108.606 84.281 108.095 67.5414C108.087 67.2059 108.31 66.9127 108.637 66.829C109.175 66.7981 109.507 67.1066 109.516 67.4922C110.047 84.8392 99.5132 100.642 83.2965 106.815L83.2174 106.835L83.2148 106.847Z" fill="#EB6309"/>
<path d="M83.1662 106.657C82.913 106.722 82.6533 106.586 82.5568 106.341C82.4549 106.075 82.5865 105.777 82.8527 105.675C98.5765 99.6849 108.8 84.3608 108.278 67.5341C108.273 67.2489 108.495 67.0178 108.777 67.0016C109.061 66.9907 109.299 67.2165 109.31 67.5004C109.842 84.7629 99.3565 100.491 83.2163 106.633C83.1952 106.639 83.1793 106.643 83.1582 106.648L83.1662 106.657Z" fill="#EB6309"/>
<path d="M36.7722 81.8224C36.4209 81.8337 36.0931 81.7828 35.7874 81.6868C35.4817 81.5908 35.1955 81.4393 34.9341 81.2308C34.6727 81.0223 34.4308 80.7582 34.2123 80.4319C33.9938 80.1057 33.7934 79.7185 33.6125 79.2758C33.4303 78.8278 33.2648 78.3136 33.1148 77.728L32.8472 76.6835C32.6256 75.8183 32.5102 75.0609 32.5011 74.4111C32.4921 73.7613 32.5905 73.202 32.8084 72.7358C33.0263 72.2696 33.3503 71.8887 33.7949 71.5836C34.2343 71.2799 34.7983 71.0455 35.4735 70.8725C35.8586 70.7739 36.2254 70.7136 36.5674 70.6878C36.9146 70.6607 37.233 70.6747 37.5331 70.7271C37.8333 70.7795 38.1151 70.8704 38.3801 71.0049C38.6503 71.138 38.8825 71.3202 39.0911 71.5423C39.2998 71.7643 39.481 72.0326 39.6519 72.3486C39.8175 72.666 39.9557 73.0297 40.0611 73.4412L37.6872 74.0494C37.5588 73.5482 37.4151 73.1409 37.2746 72.834C37.1342 72.5271 36.9782 72.2916 36.8188 72.13C36.6594 71.9685 36.4898 71.877 36.3165 71.8371C36.1446 71.8024 35.9558 71.8114 35.7606 71.8615C35.5654 71.9115 35.4126 71.9731 35.2876 72.0557C35.1626 72.1383 35.0588 72.238 34.9803 72.3705C34.9005 72.4978 34.8512 72.6566 34.8272 72.8482C34.8072 73.0333 34.8098 73.2631 34.8325 73.5271C34.8605 73.7898 34.9045 74.0933 34.9765 74.4403C35.0485 74.7872 35.138 75.1803 35.2502 75.6182L35.7691 77.6439C35.8773 78.0659 35.9838 78.4378 36.0953 78.7634C36.2055 79.0837 36.3101 79.3605 36.4145 79.5923C36.5175 79.8189 36.6282 80.0098 36.7453 80.1597C36.8624 80.3095 36.9859 80.4185 37.1184 80.4969C37.251 80.5754 37.3965 80.6168 37.555 80.6212C37.7136 80.6255 37.8878 80.6034 38.0724 80.5561C38.2307 80.5156 38.3691 80.4632 38.4862 80.3939C38.6034 80.3245 38.7059 80.242 38.7925 80.1411C38.8791 80.0403 38.9444 79.9223 38.9872 79.7821C39.0313 79.6471 39.0568 79.4832 39.0663 79.3008C39.0744 79.1132 39.068 78.9125 39.0337 78.6908C39.006 78.473 38.953 78.2224 38.8841 77.9533L38.5516 76.6556L36.8371 77.0948L36.5574 76.0028L40.4611 75.0027L41.8464 80.41L40.4959 80.756L39.8748 79.7795C39.8336 79.97 39.7686 80.1553 39.6773 80.3473C39.586 80.5394 39.4615 80.7118 39.3027 80.8818C39.1438 81.0518 38.9466 81.2035 38.7176 81.3409C38.4885 81.4782 38.2079 81.5895 37.8808 81.6733C37.4904 81.7733 37.1222 81.8283 36.7749 81.8329L36.7722 81.8224Z" fill="#EB6309"/>
<path d="M42.9818 69.1962L46.089 68.4002C46.7062 68.242 47.2684 68.1542 47.7847 68.1288C48.2957 68.1047 48.7518 68.1733 49.1463 68.3309C49.5408 68.4884 49.879 68.7334 50.1531 69.0792C50.4272 69.425 50.6399 69.882 50.7859 70.4518L50.8021 70.5151C50.8967 70.8844 50.9449 71.2262 50.9415 71.5419C50.938 71.8576 50.8843 72.1524 50.7841 72.4198C50.684 72.6872 50.5388 72.9324 50.3578 73.1474C50.1728 73.3691 49.9481 73.5672 49.6784 73.7431C49.4086 73.919 49.1071 74.0806 48.7697 74.212C48.4284 74.35 48.0593 74.4671 47.6478 74.5725L46.9515 74.7509L47.9935 78.8182L45.609 79.4291L42.9857 69.1896L42.9818 69.1962ZM47.2806 73.4242C47.5391 73.358 47.7578 73.2682 47.9368 73.1549C48.1157 73.0416 48.2483 72.9008 48.3384 72.7259C48.4285 72.5511 48.4789 72.3526 48.4802 72.1162C48.4881 71.8837 48.4508 71.6065 48.3724 71.3006L48.2832 70.9524C48.2035 70.6412 48.1029 70.3802 47.9828 70.1749C47.8627 69.9695 47.7218 69.8145 47.564 69.7031C47.4023 69.5984 47.2183 69.5387 47.0069 69.5254C46.8008 69.5108 46.5658 69.5372 46.3021 69.6048L45.669 69.767L46.6489 73.5916L47.2819 73.4295L47.2806 73.4242ZM47.1638 74.2411L49.6669 73.5886L53.1977 77.4962L50.618 78.157L47.1599 74.2478L47.1638 74.2411Z" fill="#EB6309"/>
<path d="M56.3339 65.7755L58.2699 65.2795L64.1903 74.6743L61.7531 75.2987L57.1788 67.7571L57.4004 67.7004L56.8681 76.5502L55.6548 76.8611L56.3339 65.7755ZM56.698 72.2877L60.2536 71.3767L60.9026 72.3741L56.6243 73.4702L56.698 72.2877Z" fill="#EB6309"/>
<path d="M68.8315 73.5249C68.3401 73.5159 67.9036 73.414 67.5287 73.2234C67.1538 73.0327 66.8352 72.7546 66.5755 72.377C66.3157 71.9995 66.1043 71.5252 65.9556 70.9449L68.2557 70.3556C68.3719 70.8093 68.5048 71.1744 68.649 71.4523C68.788 71.7315 68.9438 71.9445 69.1124 72.0981C69.2811 72.2516 69.4599 72.3351 69.6568 72.3578C69.8524 72.3751 70.061 72.3554 70.2772 72.3C70.3986 72.2689 70.5133 72.2339 70.62 72.1897C70.7267 72.1455 70.8255 72.0921 70.911 72.0308C70.9965 71.9696 71.0713 71.8886 71.1249 71.7905C71.1851 71.6964 71.2293 71.5839 71.2537 71.4596C71.2834 71.3339 71.2918 71.1912 71.2842 71.0301C71.2767 70.869 71.2466 70.6856 71.1952 70.4852L71.1858 70.4482C71.1195 70.1897 71.035 69.9696 70.9403 69.7972C70.8389 69.6208 70.7125 69.4789 70.5561 69.3728C70.3996 69.2667 70.2155 69.1846 70.0118 69.1356C69.8029 69.0879 69.5636 69.0536 69.2862 69.046L68.0851 68.9658C67.6637 68.9445 67.2829 68.8846 66.9349 68.777C66.5869 68.6694 66.2783 68.518 66.009 68.3228C65.7384 68.1223 65.5072 67.878 65.3218 67.5713C65.1325 67.2712 64.9838 66.9102 64.877 66.4934L64.8662 66.4512C64.7851 66.1347 64.7477 65.8351 64.7526 65.5472C64.7576 65.2592 64.8023 64.9948 64.884 64.7433C64.9671 64.4972 65.0925 64.2627 65.255 64.0411C65.4189 63.8249 65.6145 63.623 65.8393 63.4473C66.0642 63.2717 66.3288 63.1196 66.6251 62.9818C66.9176 62.8507 67.2418 62.7339 67.59 62.6447C68.1334 62.5055 68.6336 62.4392 69.0945 62.4391C69.5555 62.4391 69.9615 62.5318 70.3152 62.7054C70.6689 62.879 70.9795 63.148 71.2352 63.5097C71.4909 63.8715 71.6984 64.3524 71.8578 64.9524L69.5735 65.5376C69.4441 65.0761 69.3112 64.711 69.1735 64.437C69.0359 64.1631 68.8947 63.9632 68.7434 63.8333C68.5921 63.7034 68.4332 63.6317 68.2614 63.6195C68.0896 63.6073 67.9154 63.6294 67.7307 63.6767C67.6041 63.7092 67.4908 63.7494 67.3854 63.7989C67.28 63.8484 67.1879 63.9057 67.1051 63.9775C67.0276 64.048 66.9633 64.1263 66.9176 64.2111C66.8719 64.2959 66.8302 64.3965 66.8018 64.505C66.7733 64.6135 66.7595 64.7351 66.7708 64.8671C66.7808 64.9938 66.8068 65.139 66.8473 65.2972L66.8581 65.3394C66.9176 65.5715 66.9967 65.7705 67.094 65.9311C67.1927 66.0969 67.3124 66.2349 67.4583 66.3437C67.599 66.4538 67.7686 66.5453 67.9644 66.6076C68.1603 66.6698 68.385 66.7134 68.6427 66.7317L69.8437 66.7895C70.2942 66.8146 70.7013 66.8677 71.0624 66.9607C71.4236 67.0537 71.7453 67.1905 72.0291 67.3764C72.3128 67.5623 72.5546 67.8039 72.7505 68.1079C72.9478 68.4171 73.1058 68.7926 73.2194 69.2358L73.2275 69.2674C73.3586 69.7791 73.3957 70.2531 73.3321 70.6854C73.27 71.1229 73.1256 71.5028 72.8872 71.845C72.6488 72.1871 72.3295 72.4769 71.9254 72.721C71.5227 72.9703 71.043 73.1607 70.4839 73.3039C69.8772 73.4594 69.3282 73.5326 68.8301 73.5196L68.8315 73.5249Z" fill="#EB6309"/>
<path d="M74.6605 61.0806L77.045 60.4697L78.21 65.0171L80.6683 64.3873L79.5033 59.8399L81.8772 59.2317L84.5005 69.4712L82.1266 70.0794L80.9467 65.474L78.4884 66.1038L79.6683 70.7092L77.2838 71.3201L74.6605 61.0806Z" fill="#EB6309"/>
<path d="M85.6227 58.272L88.0071 57.6611L89.3154 62.7677L89.1466 62.8109L91.6841 56.7191L93.0451 56.3704L90.5516 62.3048L90.5066 61.1414L95.8161 66.5721L93.0729 67.2748L89.3258 63.4227L89.4788 63.3835L90.6357 67.8992L88.2512 68.5101L85.628 58.2706L85.6227 58.272Z" fill="#EB6309"/>
<path d="M98.9114 54.8678L100.847 54.3718L106.768 63.7666L104.331 64.391L99.7564 56.8494L99.9779 56.7926L99.4456 65.6425L98.2323 65.9534L98.9114 54.8678ZM99.2755 61.3799L102.831 60.469L103.48 61.4664L99.2018 62.5625L99.2755 61.3799Z" fill="#EB6309"/>
<path d="M29.2678 70.0846C28.888 70.1819 28.5022 69.949 28.4063 69.5745C28.3103 69.1999 28.5418 68.8089 28.9164 68.713L104.038 49.4676C104.418 49.3703 104.803 49.6031 104.899 49.9777C104.995 50.3522 104.764 50.7432 104.389 50.8392L29.2678 70.0846Z" fill="#EB6309"/>
<path d="M104.34 50.649L29.2191 69.8944C28.9448 69.9647 28.6612 69.8013 28.5896 69.5217C28.5179 69.2421 28.6827 68.9637 28.9623 68.8921L104.084 49.6467C104.358 49.5764 104.642 49.7399 104.713 50.0195C104.785 50.2991 104.62 50.5774 104.34 50.649Z" fill="#EB6309"/>
<path d="M33.2305 87.6148C32.8507 87.7122 32.465 87.4793 32.3691 87.1047C32.2731 86.7302 32.5046 86.3392 32.8792 86.2432L99.2697 69.2346C99.6496 69.1373 100.035 69.3701 100.131 69.7447C100.227 70.1192 99.9957 70.5102 99.6211 70.6062L33.2305 87.6148Z" fill="#EB6309"/>
<path d="M99.5725 70.4165L33.1819 87.4252C32.9076 87.4955 32.624 87.332 32.5523 87.0524C32.4807 86.7728 32.6455 86.4945 32.9251 86.4229L99.3157 69.4142C99.59 69.3439 99.8736 69.5074 99.9452 69.787C100.017 70.0666 99.8521 70.3449 99.5725 70.4165Z" fill="#EB6309"/>
<path d="M99.6211 70.6061C99.2412 70.7034 98.8555 70.4705 98.7596 70.096C98.6636 69.7214 98.8951 69.3304 99.2697 69.2345L108.628 66.8369C109.008 66.7396 109.394 66.9724 109.49 67.347C109.586 67.7215 109.354 68.1125 108.98 68.2085L99.6211 70.6061Z" fill="#EB6309"/>
<path d="M108.931 68.0188L99.5724 70.4164C99.2981 70.4867 99.0145 70.3232 98.9428 70.0436C98.8712 69.764 99.036 69.4857 99.3156 69.4141L108.674 67.0165C108.948 66.9462 109.232 67.1097 109.304 67.3893C109.375 67.6689 109.211 67.9472 108.931 68.0188Z" fill="#EB6309"/>
<path d="M82.5179 123.042C52.4746 130.738 21.7723 112.559 14.0755 82.5158C6.3787 52.4725 24.558 21.7702 54.6012 14.0734C84.6445 6.3766 115.347 24.5559 123.044 54.5991C130.74 84.6424 112.561 115.345 82.5179 123.042ZM54.954 15.4503C25.6704 22.9525 7.95019 52.8795 15.4524 82.1631C22.9546 111.447 52.8816 129.167 82.1652 121.665C111.449 114.162 129.169 84.2355 121.667 54.9519C114.165 25.6683 84.2376 7.94809 54.954 15.4503Z" fill="#EB6309"/>
<path d="M82.4692 122.851C52.5314 130.521 21.9352 112.405 14.2654 82.467C6.5956 52.5292 24.7121 21.933 54.6498 14.2632C84.5876 6.5934 115.184 24.7099 122.854 54.6476C130.523 84.5854 112.407 115.182 82.4692 122.851ZM54.9053 15.2602C25.5162 22.7895 7.7332 52.8225 15.2624 82.2116C22.7917 111.601 52.8247 129.384 82.2138 121.854C111.603 114.325 129.386 84.2922 121.857 54.9031C114.327 25.514 84.2891 7.73236 54.9053 15.2602Z" fill="#EB6309"/>
<path d="M78.731 108.26C78.3512 108.357 77.9655 108.125 77.8695 107.75L70.1038 77.4377C70.0065 77.0579 70.2393 76.6722 70.6139 76.5763C70.9884 76.4803 71.3794 76.7118 71.4754 77.0864L79.2411 107.399C79.3384 107.778 79.1056 108.164 78.731 108.26Z" fill="#EB6309"/>
<path d="M78.6824 108.07C78.408 108.14 78.1244 107.977 78.0528 107.697L70.2884 77.3903C70.2181 77.116 70.3816 76.8324 70.6612 76.7608C70.9408 76.6891 71.2191 76.8539 71.2907 77.1335L79.0551 107.441C79.1254 107.715 78.962 107.998 78.6824 108.07Z" fill="#EB6309"/>
<path d="M64.4643 109.295C64.2754 109.282 64.1005 109.191 63.9795 109.048C63.8584 108.905 63.794 108.719 63.8127 108.529L66.0799 78.2321C66.1032 77.9282 66.3197 77.676 66.6151 77.6003L66.8395 77.5765C67.0337 77.5886 67.2033 77.6801 67.3296 77.822C67.4506 77.9653 67.5151 78.1511 67.5017 78.3401L65.2345 108.637C65.2111 108.941 64.996 109.198 64.7059 109.273L64.4749 109.292L64.4643 109.295Z" fill="#EB6309"/>
<path d="M64.6414 109.087C64.5887 109.1 64.5332 109.103 64.4764 109.101C64.1897 109.079 63.9809 108.835 64.003 108.548L66.2702 78.2511C66.2936 77.9696 66.5368 77.7556 66.8235 77.7777C67.1102 77.7998 67.319 78.0442 67.2969 78.331L65.0297 108.628C65.0138 108.851 64.8524 109.033 64.6414 109.087Z" fill="#EB6309"/>
<path d="M50.9831 105.255C50.8301 105.295 50.6755 105.284 50.5351 105.218C50.359 105.145 50.2235 105.012 50.1498 104.834C50.0761 104.656 50.0777 104.464 50.1506 104.288L60.5263 79.4415C60.6136 79.2336 60.7884 79.082 61.0046 79.0266C61.1524 78.9888 61.307 78.9997 61.4565 79.057C61.8167 79.2121 61.9908 79.6284 61.841 79.9872L51.4653 104.834C51.3781 105.042 51.2033 105.193 50.9817 105.25L50.9831 105.255Z" fill="#EB6309"/>
<path d="M50.941 105.07C50.8355 105.097 50.7219 105.092 50.6147 105.046C50.3498 104.934 50.2279 104.634 50.3347 104.37L60.7104 79.5238C60.8224 79.259 61.1228 79.137 61.3863 79.2438C61.6511 79.3558 61.773 79.6563 61.6663 79.9197L51.2906 104.766C51.2242 104.924 51.094 105.03 50.941 105.07Z" fill="#EB6309"/>
<path d="M39.6038 96.7586C39.3611 96.8208 39.0952 96.7484 38.9198 96.5684C38.7843 96.4345 38.7159 96.2553 38.7175 96.0637C38.719 95.8722 38.7972 95.6948 38.9311 95.5593L53.7692 81.0431C53.8598 80.958 53.9678 80.8966 54.0891 80.8656C54.337 80.802 54.5977 80.8758 54.7731 81.0557C54.9033 81.191 54.977 81.3689 54.9754 81.5604C54.9739 81.752 54.8957 81.9294 54.7618 82.0649L39.9237 96.5811C39.8331 96.6661 39.7199 96.7289 39.6038 96.7586Z" fill="#EB6309"/>
<path d="M39.5564 96.5742C39.3823 96.6188 39.1906 96.5724 39.0603 96.4371C38.8624 96.2348 38.8631 95.9086 39.0706 95.7093L53.9087 81.1931C54.1109 80.9951 54.4372 80.9959 54.6365 81.2034C54.8345 81.4056 54.8337 81.7319 54.6262 81.9312L39.7882 96.4474C39.7212 96.5151 39.6422 96.5579 39.5578 96.5795L39.5564 96.5742Z" fill="#EB6309"/>
<path d="M78.7893 106.491C78.6311 106.531 78.5537 106.405 78.4537 106.234C78.403 106.146 78.2656 105.917 78.2007 105.883C77.905 105.914 77.7289 105.841 77.5895 105.713C77.4501 105.586 77.375 105.403 77.3713 105.213C77.0911 93.3891 84.4714 82.8748 96.6315 77.7863L96.6474 77.7822C97.08 77.6714 97.4231 77.8477 97.561 78.1665C97.711 78.5328 97.5417 78.9472 97.1807 79.096C85.8797 83.8294 78.379 94.993 78.9478 106.254L78.9553 106.415L78.7907 106.496L78.7893 106.491Z" fill="#EB6309"/>
<path d="M78.2036 105.697C78.1667 105.706 78.1298 105.716 78.0902 105.715C77.8049 105.72 77.5672 105.495 77.5615 105.209C77.2845 93.4636 84.6163 83.0235 96.7053 77.9645C96.9649 77.8587 97.2707 77.9771 97.3779 78.2419C97.4904 78.5054 97.3653 78.8073 97.1005 78.9145C85.4134 83.8087 78.1901 95.1992 78.7471 106.26C78.7591 106.505 78.4305 105.639 78.2036 105.697Z" fill="#EB6309"/>
<path d="M25.072 48.3749C23.1045 47.3218 22.3799 45.5905 23.318 43.8323C23.9883 42.5868 25.1761 41.979 26.6312 42.3483L26.2449 43.6053C25.3796 43.3435 24.6541 43.5181 24.2321 44.3064C23.9459 44.8351 23.8787 45.3189 24.0994 45.7852C24.3361 46.2923 24.8829 46.7369 25.7096 47.1772C26.5443 47.6267 27.1821 47.8119 27.7153 47.7427C28.2221 47.6803 28.6179 47.3822 28.9132 46.8231C29.3273 46.048 29.0724 45.36 28.4918 44.7836L29.4172 43.7876C30.2883 44.818 30.5002 46.0399 29.8234 47.3038C28.8865 49.0448 27.2184 49.5115 25.0707 48.3697L25.072 48.3749Z" fill="#EB6309"/>
<path d="M30.4305 41.5547L26.6553 38.5586L27.446 37.5634L31.1787 40.5254C31.9469 41.1324 32.6605 40.9553 33.1954 40.2785C33.7396 39.5938 33.7577 38.8528 32.9881 38.2404L29.2554 35.2784L30.0447 34.2779L33.8198 37.274C35.0486 38.2522 35.1524 39.513 34.0274 40.9367C32.905 42.3486 31.6738 42.546 30.4305 41.5547Z" fill="#EB6309"/>
<path d="M37.5456 36.7638L32.7874 31.4448L33.7295 30.602L37.7697 35.1154L40.3307 32.8235L41.0539 33.6276L37.5508 36.7624L37.5456 36.7638Z" fill="#EB6309"/>
<path d="M43.8583 31.65L40.5401 26.5974L38.7204 27.7888L38.13 26.8888L42.8471 23.7971L43.4375 24.6971L41.6085 25.8965L44.9267 30.9491L43.8636 31.6487L43.8583 31.65Z" fill="#EB6309"/>
<path d="M48.8726 21.9724L48.1336 22.3135L50.2604 26.9068L51.0047 26.5644L51.4434 27.5088L48.7957 28.7381L48.357 27.7936L49.1066 27.4498L46.9798 22.8565L46.2316 23.2056L45.7928 22.2611L48.4405 21.0319L48.8792 21.9764L48.8726 21.9724Z" fill="#EB6309"/>
<path d="M55.698 25.9687L51.4697 19.7776L52.7816 19.3909L54.9025 22.7321C55.4331 23.5743 55.848 24.2944 55.992 24.5273L56.0131 24.5219C56.0051 24.271 55.9716 23.5038 55.9692 22.4195L55.9554 18.4598L57.2476 18.0837L57.0218 25.5846L55.698 25.9687Z" fill="#EB6309"/>
<path d="M65.3726 24.0808L64.571 22.2904L62.1173 22.5874L61.7627 24.5165L60.4481 24.6734L62.0232 17.3047L63.4091 17.1408L66.6766 23.9266L65.3739 24.086L65.3726 24.0808ZM62.313 21.486L64.112 21.2668L63.3707 19.6241C63.2183 19.3146 63.0039 18.7849 62.8578 18.4119L62.8367 18.4174C62.7772 18.8655 62.7121 19.2475 62.6342 19.7116L62.313 21.486Z" fill="#EB6309"/>
<path d="M70.1019 23.9988L70.3559 17.9467L68.1787 17.8524L68.2226 16.7731L73.8665 17.0136L73.8226 18.093L71.6334 17.9961L71.3741 24.0496L70.1005 23.9936L70.1019 23.9988Z" fill="#EB6309"/>
<path d="M79.8288 19.0897L79.0301 18.9345L78.0697 23.8971L78.8684 24.0523L78.6696 25.0758L75.8069 24.5218L76.0056 23.4984L76.8162 23.6561L77.7819 18.6922L76.9713 18.5344L77.1701 17.511L80.0329 18.0649L79.8394 19.087L79.8288 19.0897Z" fill="#EB6309"/>
<path d="M81.8431 25.8989L84.2634 19.1962L85.5949 19.6758L86.1802 23.7815C86.2438 24.2711 86.3216 25.1675 86.3611 25.8264L86.3916 25.8354C86.5583 25.2137 86.8411 24.3205 86.9658 23.9737L88.1825 20.6038L89.3155 21.0107L86.8951 27.7133L85.5451 27.2272L84.9657 22.9908C84.9106 22.6001 84.83 21.6932 84.7908 21.0793L84.7723 21.0728C84.5677 21.7885 84.2823 22.6712 84.2044 22.8935L82.9747 26.3004L81.8536 25.8962L81.8431 25.8989Z" fill="#EB6309"/>
<path d="M94.1067 27.2709L96.6385 28.8148L94.6276 32.1126L93.7607 31.5814L94.1589 30.7879C93.5177 31.1377 92.7183 31.0895 91.9522 30.6225C90.3868 29.6687 89.9808 27.9963 91.2774 25.8821C92.4693 23.9296 94.2359 23.3645 95.9352 24.4021C97.1759 25.1636 97.6477 26.3469 97.2187 27.7442L95.989 27.289C96.2774 26.4619 96.1742 25.7519 95.3962 25.2822C94.8567 24.9538 94.3583 24.8735 93.8721 25.0824C93.3859 25.2913 92.912 25.7893 92.4253 26.5886C91.9269 27.4078 91.7021 28.0444 91.7421 28.5738C91.7809 29.0979 92.079 29.4938 92.6397 29.8392C93.5066 30.3704 94.373 30.1316 95.0713 29.1488L93.539 28.2147L94.1134 27.2749L94.1067 27.2709Z" fill="#EB6309"/>
<path d="M102.441 39.2856L103.408 37.5761L101.71 35.7738L99.9464 36.636L99.036 35.6719L105.902 32.5637L106.86 33.583L103.338 40.2419L102.436 39.2869L102.441 39.2856ZM102.714 35.2806L103.956 36.5982L104.84 35.0226C105.003 34.7165 105.295 34.2314 105.511 33.8894L105.496 33.8763C105.103 34.0952 104.748 34.2703 104.336 34.4827L102.719 35.2793L102.714 35.2806Z" fill="#EB6309"/>
<path d="M109.408 49.9804L109.377 49.9885L108.729 48.7771C108.952 48.4166 109.212 48.2037 110.037 47.7617C110.788 47.3559 110.897 46.8612 110.437 46.0067L109.865 44.9389L107.384 46.2715L106.782 45.1496L113.068 41.7741L114.241 43.9585C114.896 45.179 115.343 46.5488 113.686 47.4341C112.916 47.8507 112.156 47.7362 111.601 47.2824C111.702 48.0043 111.374 48.4817 110.701 48.8396C110.025 49.2041 109.647 49.4864 109.41 49.9857L109.408 49.9804ZM111.288 45.4457C111.677 46.1725 112.149 46.8328 113.05 46.3547C114.019 45.8366 113.683 45.0963 113.297 44.38L112.766 43.3806L110.759 44.4568L111.293 45.4443L111.288 45.4457Z" fill="#EB6309"/>
<path d="M110.48 52.7362L117.262 50.5319L118.724 55.0313L117.717 55.3568L116.651 52.0716L114.798 52.6754L115.753 55.6126L114.757 55.9354L113.802 52.9982L111.882 53.6249L112.949 56.9101L111.943 57.2409L110.481 52.7415L110.48 52.7362Z" fill="#EB6309"/>
<path d="M114.833 59.5471L115.146 60.833C114.126 60.9763 113.709 61.7184 113.84 62.6686C113.956 63.5384 114.369 64.1633 115.145 64.0545C115.96 63.9467 115.864 63.0438 115.961 61.9959C116.078 60.718 116.398 59.534 117.742 59.3584C119.215 59.161 119.962 60.4537 120.119 61.6613C120.317 63.1342 119.877 64.3373 118.284 64.723L117.89 63.4692C118.864 63.2985 119.235 62.6861 119.117 61.8058C119.023 61.0878 118.619 60.5447 117.972 60.6317C117.315 60.7213 117.214 61.5118 117.167 62.4683C117.093 63.915 116.884 65.138 115.378 65.3383C113.78 65.551 113.018 64.2901 112.819 62.7895C112.609 61.2242 113.197 59.8089 114.824 59.555L114.833 59.5471Z" fill="#EB6309"/>
<path d="M113.375 68.4712L120.494 68.8511L120.368 71.2333C120.301 72.4871 120.005 74.0527 118.01 73.9454C116.032 73.8394 115.904 72.2644 115.974 70.9986L116.034 69.8756L113.31 69.7303L113.375 68.4712ZM117.05 69.9357L116.993 71.0297C116.953 71.7934 116.958 72.6241 118.079 72.6797C119.237 72.7429 119.301 71.9171 119.344 71.1639L119.402 70.0528L117.049 69.9305L117.05 69.9357Z" fill="#EB6309"/>
<path d="M116.251 76.8864C118.362 77.4024 119.568 78.8641 119.079 80.8389C118.596 82.8124 116.842 83.5372 114.741 83.0184C112.612 82.4959 111.424 81.0407 111.91 79.0778C112.392 77.1162 113.935 76.316 116.251 76.8864ZM113.168 80.7624C113.533 81.1975 114.216 81.4946 115.068 81.7036C115.92 81.9127 116.662 81.9585 117.173 81.7601C117.639 81.5791 117.932 81.189 118.072 80.6361C118.224 80.0237 118.117 79.5171 117.819 79.1438C117.472 78.7324 116.768 78.4234 115.928 78.217C115.034 77.9963 114.304 77.953 113.82 78.15C113.352 78.3429 113.046 78.77 112.912 79.3216C112.772 79.8969 112.848 80.3891 113.168 80.7624Z" fill="#EB6309"/>
<path d="M110.306 84.7733L116.787 87.7787L116.19 89.0673L112.036 89.2883C111.546 89.307 110.646 89.3069 109.978 89.2871L109.969 89.3175C110.572 89.5451 111.445 89.9006 111.776 90.0519L115.035 91.5611L114.528 92.6524L108.046 89.647L108.65 88.3398L112.931 88.1313C113.325 88.1092 114.235 88.1066 114.858 88.1267L114.865 88.1082C114.167 87.8428 113.309 87.478 113.098 87.3801L109.806 85.8513L110.31 84.7666L110.306 84.7733Z" fill="#EB6309"/>
<path d="M108.517 93.4163L107.868 94.5665C107.024 93.9731 106.213 94.2314 105.659 95.0086C105.149 95.7182 105.023 96.4533 105.658 96.9146C106.332 97.3941 106.872 96.6711 107.666 95.973C108.628 95.1195 109.671 94.4754 110.767 95.2629C111.974 96.1342 111.636 97.5811 110.923 98.5732C110.057 99.7789 108.917 100.352 107.49 99.5429L108.064 98.3614C108.889 98.9034 109.581 98.7092 110.1 97.9916C110.523 97.4053 110.598 96.7339 110.068 96.3527C109.531 95.9675 108.913 96.4743 108.227 97.1334C107.18 98.138 106.197 98.8847 104.963 97.9977C103.655 97.0623 103.961 95.6234 104.843 94.3913C105.763 93.11 107.158 92.4772 108.521 93.4096L108.517 93.4163Z" fill="#EB6309"/>
<path d="M103.534 105.324L104.112 104.748L100.542 101.171L99.9646 101.747L99.2299 101.007L101.294 98.9492L102.028 99.6833L101.441 100.267L105.01 103.844L105.592 103.262L106.326 103.996L104.263 106.059L103.529 105.325L103.534 105.324Z" fill="#EB6309"/>
<path d="M93.5142 107.947C92.4782 106.492 93.5304 105.509 94.7366 104.643L96.7386 103.22L100.881 109.033L98.9755 110.393C97.8969 111.164 96.5853 111.837 95.5852 110.435C95.1617 109.835 95.1487 109.192 95.4598 108.629C94.679 108.829 94.0163 108.656 93.5156 107.952L93.5142 107.947ZM95.3647 105.449C94.561 106.02 93.9798 106.473 94.5525 107.282C95.1744 108.151 95.9177 107.652 96.5491 107.198L97.529 106.502L96.3065 104.781L95.37 105.448L95.3647 105.449ZM99.2509 108.923L98.1176 107.33L97.3047 107.909C96.5918 108.418 95.9935 108.869 96.5527 109.648C97.104 110.417 97.7356 110.008 98.4341 109.509L99.2562 108.921L99.2509 108.923Z" fill="#EB6309"/>
<path d="M89.6898 107.83L92.7441 114.289L91.6008 114.829L89.0105 109.348L85.902 110.819L85.438 109.842L89.6898 107.83Z" fill="#EB6309"/>
<path d="M83.1208 110.671L85.0838 117.521L80.5425 118.82L80.2539 117.803L83.5742 116.851L83.0389 114.982L80.0747 115.831L79.7822 114.821L82.7464 113.972L82.1936 112.033L78.8734 112.985L78.5835 111.963L83.1248 110.665L83.1208 110.671Z" fill="#EB6309"/>
<path d="M71.9612 112.929L72.1295 120.059L67.4241 120.168L67.3994 119.107L70.8423 119.028L70.794 117.084L67.7262 117.156L67.699 116.107L70.7668 116.035L70.6973 112.955L71.9599 112.924L71.9612 112.929Z" fill="#EB6309"/>
<path d="M64.8258 116.5C64.5042 118.645 63.1541 119.98 61.1487 119.679C59.1433 119.378 58.2631 117.697 58.5809 115.559C58.9077 113.389 60.2526 112.078 62.2514 112.375C64.2462 112.679 65.1819 114.137 64.8258 116.5ZM60.6838 113.783C60.282 114.19 60.0523 114.895 59.9253 115.759C59.7943 116.631 59.8158 117.373 60.0604 117.867C60.2809 118.31 60.6958 118.57 61.2629 118.655C61.8882 118.748 62.384 118.598 62.7268 118.268C63.101 117.886 63.3464 117.154 63.4761 116.3C63.6148 115.393 63.5894 114.658 63.3477 114.197C63.1152 113.75 62.6593 113.485 62.0975 113.398C61.5132 113.312 61.0265 113.431 60.6838 113.783Z" fill="#EB6309"/>
<path d="M56.1616 114.959C55.4564 117.011 53.8961 118.074 51.9797 117.418C50.0634 116.763 49.4981 114.951 50.2008 112.91C50.9126 110.839 52.4703 109.788 54.3761 110.447C56.2805 111.1 56.9397 112.707 56.1616 114.959ZM52.5875 111.54C52.1191 111.862 51.765 112.521 51.4819 113.347C51.1987 114.173 51.0842 114.91 51.2365 115.439C51.3753 115.915 51.7352 116.244 52.2725 116.433C52.8707 116.639 53.3842 116.581 53.7776 116.317C54.2156 116.008 54.5881 115.334 54.8687 114.52C55.1687 113.65 55.2754 112.926 55.1259 112.43C54.9805 111.95 54.5783 111.609 54.041 111.421C53.4798 111.227 52.9887 111.263 52.5888 111.545L52.5875 111.54Z" fill="#EB6309"/>
<path d="M49.2865 108.552L45.8107 114.777L43.7633 113.632C41.887 112.584 41.5992 110.802 42.6476 108.926C43.7431 106.97 45.4211 106.388 47.2392 107.407L49.2851 108.546L49.2865 108.552ZM47.6833 108.833L46.8034 108.339C46.1806 107.993 45.6308 107.931 45.1658 108.135C44.6375 108.377 44.2335 108.862 43.8336 109.583C43.4218 110.324 43.2204 110.898 43.2752 111.463C43.3114 111.999 43.7114 112.42 44.3342 112.766L45.2141 113.26L47.6886 108.832L47.6833 108.833Z" fill="#EB6309"/>
<path d="M37.0691 104.705C35.5026 106.293 33.6322 106.496 32.2147 105.089C31.2051 104.088 30.9716 102.782 31.7354 101.484L32.8333 102.215C32.3345 102.967 32.2913 103.72 32.9303 104.349C33.3594 104.773 33.7938 104.977 34.3071 104.896C34.8601 104.816 35.4428 104.414 36.1047 103.749C36.7757 103.077 37.1383 102.518 37.221 101.985C37.3053 101.48 37.1309 101.018 36.6806 100.577C36.0562 99.9615 35.3208 100.009 34.6059 100.4L33.9175 99.2276C35.1559 98.6855 36.3865 98.8368 37.4094 99.8453C38.8175 101.238 38.7893 102.972 37.0691 104.705Z" fill="#EB6309"/>
<path d="M32.0868 97.6334L28.1471 100.402L27.4132 99.3592L31.3095 96.6183C32.1106 96.0589 32.142 95.3257 31.6452 94.6153C31.1418 93.901 30.4378 93.6766 29.6367 94.236L25.7404 96.9769L25.0066 95.9338L28.9477 93.1702C30.2289 92.2685 31.4706 92.5294 32.5148 94.0159C33.5496 95.4878 33.3825 96.7225 32.0881 97.6387L32.0868 97.6334Z" fill="#EB6309"/>
<path d="M29.5004 89.4251L23.0608 92.4859L22.5205 91.3426L27.9842 88.7511L26.5145 85.6478L27.4919 85.1838L29.5057 89.4238L29.5004 89.4251Z" fill="#EB6309"/>
<path d="M26.3831 81.8868L20.5948 83.6283L21.2199 85.7168L20.1861 86.0266L18.5605 80.6247L19.5942 80.3149L20.2272 82.4126L26.0154 80.6712L26.3831 81.8868Z" fill="#EB6309"/>
<path d="M22.6767 76.8552L17.8855 77.4418L17.7302 76.1773L22.4659 75.5937C23.4413 75.4731 23.8141 74.8436 23.706 73.983C23.6019 73.1159 23.0824 72.58 22.1123 72.6993L17.3752 73.2776L17.22 72.0132L22.0045 71.4227C23.5632 71.2313 24.5375 72.0498 24.7566 73.8488C24.9797 75.6412 24.2499 76.6545 22.67 76.8513L22.6767 76.8552Z" fill="#EB6309"/>
<path d="M24.5002 63.1487L24.532 63.1631L24.4568 64.5372C24.0802 64.7348 23.7528 64.7737 22.8188 64.7263C21.9639 64.6811 21.6147 65.0516 21.5636 66.0148L21.4966 67.2237L24.3069 67.3751L24.239 68.6461L17.115 68.2676L17.2459 65.7943C17.3184 64.4096 17.651 63.009 19.5205 63.109C20.3992 63.1594 20.9845 63.6447 21.2209 64.3262C21.5102 63.6562 22.0345 63.4206 22.7982 63.4611C23.5619 63.5016 24.0331 63.4539 24.4963 63.1554L24.5002 63.1487ZM20.5375 66.0472C20.5842 65.2201 20.524 64.4148 19.5093 64.3599C18.4087 64.2989 18.317 65.1039 18.2715 65.9138L18.212 67.0421L20.4806 67.1636L20.5361 66.0419L20.5375 66.0472Z" fill="#EB6309"/>
<path d="M24.9421 60.7702L17.9854 59.1795L19.0416 54.569L20.0745 54.8047L19.3017 58.1733L21.2009 58.6087L21.8913 55.5985L22.9123 55.8317L22.2219 58.8418L24.1872 59.294L24.9601 55.9254L25.9931 56.1611L24.9368 60.7716L24.9421 60.7702Z" fill="#EB6309"/>
</g>
<defs>
<clipPath id="clip0_186_640">
<rect width="112.487" height="112.487" fill="white" transform="translate(0.117188 28.0317) rotate(-14.3696)"/>
</clipPath>
</defs>
</svg>
